<svg xmlns="http://www.w3.org/2000/svg" xmlns:xlink="http://www.w3.org/1999/xlink" width="54" height="101" viewBox="0 0 54 101">
  <defs>
    <clipPath id="clip-path">
      <rect width="7.274" height="60.427" fill="none"/>
    </clipPath>
  </defs>
  <g id="destination" transform="translate(-6768 1225)">
    <path id="Path_247" data-name="Path 247" d="M0,0H54V101H0Z" transform="translate(6768 -1225)" fill="none"/>
    <g id="destination-2" data-name="destination" transform="translate(6790.001 -1219)">
      <g id="Group_2486" data-name="Group 2486" transform="translate(0 0)">
        <g id="Group_2484" data-name="Group 2484" transform="translate(0.981 75.325)">
          <path id="Exclusion_1" data-name="Exclusion 1" d="M-6781.377,1160.416h0a28.515,28.515,0,0,1-5.361-6.713,11.822,11.822,0,0,1-1.238-4.709,4.687,4.687,0,0,1,1.107-3.508c1.4-1.5,3.916-1.749,5.688-1.806.09,0,.182,0,.272,0a5.606,5.606,0,0,1,3.956,1.411,6.573,6.573,0,0,1,1.786,4.7,10.936,10.936,0,0,1-1.96,6.044,23.307,23.307,0,0,1-4.249,4.582Zm-.121-13.591a2.95,2.95,0,0,0-2.947,2.947,2.951,2.951,0,0,0,2.947,2.949,2.951,2.951,0,0,0,2.947-2.949A2.951,2.951,0,0,0-6781.5,1146.825Z" transform="translate(6787.983 -1143.675)" fill="#ff2350"/>
        </g>
        <g id="Path_246" data-name="Path 246" fill="none">
          <path d="M6.468,0A6.468,6.468,0,1,1,0,6.468,6.468,6.468,0,0,1,6.468,0Z" stroke="none"/>
          <path d="M 6.467785835266113 2.999996185302734 C 4.555635452270508 2.999996185302734 2.999996185302734 4.555635452270508 2.999996185302734 6.467785835266113 C 2.999996185302734 8.379936218261719 4.555635452270508 9.935575485229492 6.467785835266113 9.935575485229492 C 8.379936218261719 9.935575485229492 9.935575485229492 8.379936218261719 9.935575485229492 6.467785835266113 C 9.935575485229492 4.555635452270508 8.379936218261719 2.999996185302734 6.467785835266113 2.999996185302734 M 6.467785835266113 -3.814697265625e-06 C 10.03984642028809 -3.814697265625e-06 12.93557548522949 2.895726203918457 12.93557548522949 6.467785835266113 C 12.93557548522949 10.03984642028809 10.03984642028809 12.93557548522949 6.467785835266113 12.93557548522949 C 2.895726203918457 12.93557548522949 -3.814697265625e-06 10.03984642028809 -3.814697265625e-06 6.467785835266113 C -3.814697265625e-06 2.895726203918457 2.895726203918457 -3.814697265625e-06 6.467785835266113 -3.814697265625e-06 Z" stroke="none" fill="#cba538"/>
        </g>
        <g id="Group_2485" data-name="Group 2485" transform="translate(5.662 14.897)">
          <g id="Repeat_Grid_1" data-name="Repeat Grid 1" transform="translate(0 0)" clip-path="url(#clip-path)">
            <g transform="translate(-6781 1212)">
              <circle id="Ellipse_65" data-name="Ellipse 65" cx="1.25" cy="1.25" r="1.25" transform="translate(6781 -1215)" fill="#f4bc1d"/>
            </g>
            <g transform="translate(-6781 1216)">
              <circle id="Ellipse_65-2" data-name="Ellipse 65" cx="1.25" cy="1.25" r="1.25" transform="translate(6781 -1215)" fill="#f4bc1d"/>
            </g>
            <g transform="translate(-6781 1220)">
              <circle id="Ellipse_65-3" data-name="Ellipse 65" cx="1.25" cy="1.25" r="1.25" transform="translate(6781 -1215)" fill="#f4bc1d"/>
            </g>
            <g transform="translate(-6781 1224)">
              <circle id="Ellipse_65-4" data-name="Ellipse 65" cx="1.25" cy="1.25" r="1.25" transform="translate(6781 -1215)" fill="#f4bc1d"/>
            </g>
            <g transform="translate(-6781 1228)">
              <circle id="Ellipse_65-5" data-name="Ellipse 65" cx="1.25" cy="1.25" r="1.25" transform="translate(6781 -1215)" fill="#f4bc1d"/>
            </g>
            <g transform="translate(-6781 1232)">
              <circle id="Ellipse_65-6" data-name="Ellipse 65" cx="1.25" cy="1.25" r="1.25" transform="translate(6781 -1215)" fill="#f4bc1d"/>
            </g>
            <g transform="translate(-6781 1236)">
              <circle id="Ellipse_65-7" data-name="Ellipse 65" cx="1.25" cy="1.25" r="1.25" transform="translate(6781 -1215)" fill="#f4bc1d"/>
            </g>
            <g transform="translate(-6781 1240)">
              <circle id="Ellipse_65-8" data-name="Ellipse 65" cx="1.25" cy="1.25" r="1.25" transform="translate(6781 -1215)" fill="#f4bc1d"/>
            </g>
            <g transform="translate(-6781 1244)">
              <circle id="Ellipse_65-9" data-name="Ellipse 65" cx="1.25" cy="1.25" r="1.25" transform="translate(6781 -1215)" fill="#f4bc1d"/>
            </g>
            <g transform="translate(-6781 1248)">
              <circle id="Ellipse_65-10" data-name="Ellipse 65" cx="1.25" cy="1.25" r="1.25" transform="translate(6781 -1215)" fill="#f4bc1d"/>
            </g>
            <g transform="translate(-6781 1252)">
              <circle id="Ellipse_65-11" data-name="Ellipse 65" cx="1.25" cy="1.25" r="1.25" transform="translate(6781 -1215)" fill="#f4bc1d"/>
            </g>
            <g transform="translate(-6781 1256)">
              <circle id="Ellipse_65-12" data-name="Ellipse 65" cx="1.25" cy="1.25" r="1.25" transform="translate(6781 -1215)" fill="#f4bc1d"/>
            </g>
            <g transform="translate(-6781 1260)">
              <circle id="Ellipse_65-13" data-name="Ellipse 65" cx="1.25" cy="1.25" r="1.25" transform="translate(6781 -1215)" fill="#f4bc1d"/>
            </g>
            <g transform="translate(-6781 1264)">
              <circle id="Ellipse_65-14" data-name="Ellipse 65" cx="1.25" cy="1.25" r="1.25" transform="translate(6781 -1215)" fill="#f4bc1d"/>
            </g>
            <g transform="translate(-6781 1268)">
              <circle id="Ellipse_65-15" data-name="Ellipse 65" cx="1.25" cy="1.25" r="1.25" transform="translate(6781 -1215)" fill="#f4bc1d"/>
            </g>
            <g transform="translate(-6781 1272)">
              <circle id="Ellipse_65-16" data-name="Ellipse 65" cx="1.25" cy="1.25" r="1.25" transform="translate(6781 -1215)" fill="#f4bc1d"/>
            </g>
          </g>
        </g>
      </g>
    </g>
  </g>
</svg>
