<svg xmlns="http://www.w3.org/2000/svg" width="42" height="42" viewBox="0 0 42 42">
  <g id="icon-categories" transform="translate(-56 -87)">
    <g id="icon-restaurant" transform="translate(-15 49)">
      <g id="icon-restaurant-2" data-name="icon-restaurant" transform="translate(71 38)">
        <g id="Group_2371" data-name="Group 2371">
          <g id="Path_229" data-name="Path 229" fill="#d2cfff">
            <path d="M 21 40 C 15.92492008209229 40 11.15359973907471 38.02365875244141 7.564970016479492 34.43503189086914 C 3.976340055465698 30.84639930725098 2 26.07508087158203 2 21 C 2 15.92492008209229 3.976340055465698 11.15359973907471 7.564970016479492 7.564970016479492 C 11.15359973907471 3.976340055465698 15.92492008209229 2 21 2 C 26.07508087158203 2 30.84639930725098 3.976340055465698 34.43503189086914 7.564970016479492 C 38.02365875244141 11.15359973907471 40 15.92492008209229 40 21 C 40 26.07508087158203 38.02365875244141 30.84639930725098 34.43503189086914 34.43503189086914 C 30.84639930725098 38.02365875244141 26.07508087158203 40 21 40 Z" stroke="none"/>
            <path d="M 21 4 C 16.45914077758789 4 12.19005966186523 5.768310546875 8.979179382324219 8.979179382324219 C 5.768310546875 12.19005966186523 4 16.45914077758789 4 21 C 4 25.54085922241211 5.768310546875 29.80994033813477 8.979179382324219 33.02082061767578 C 12.19005966186523 36.231689453125 16.45914077758789 38 21 38 C 25.54085922241211 38 29.80994033813477 36.231689453125 33.02082061767578 33.02082061767578 C 36.231689453125 29.80994033813477 38 25.54085922241211 38 21 C 38 16.45914077758789 36.231689453125 12.19005966186523 33.02082061767578 8.979179382324219 C 29.80994033813477 5.768310546875 25.54085922241211 4 21 4 M 21 0 C 32.59798049926758 0 42 9.402019500732422 42 21 C 42 32.59798049926758 32.59798049926758 42 21 42 C 9.402019500732422 42 0 32.59798049926758 0 21 C 0 9.402019500732422 9.402019500732422 0 21 0 Z" stroke="none" fill="#fff"/>
          </g>
        </g>
      </g>
    </g>
    <g id="Group_2469" data-name="Group 2469" transform="translate(-15 50)">
      <g id="Group_2467" data-name="Group 2467" transform="translate(85 51)">
        <g id="Rectangle_318" data-name="Rectangle 318" fill="none" stroke="#000" stroke-width="1">
          <rect width="7" height="7" rx="2" stroke="none"/>
          <rect x="0.5" y="0.5" width="6" height="6" rx="1.5" fill="none"/>
        </g>
        <g id="Rectangle_319" data-name="Rectangle 319" transform="translate(8)" fill="none" stroke="#000" stroke-width="1">
          <rect width="7" height="7" rx="2" stroke="none"/>
          <rect x="0.5" y="0.5" width="6" height="6" rx="1.5" fill="none"/>
        </g>
      </g>
      <g id="Group_2468" data-name="Group 2468" transform="translate(85 58.817)">
        <g id="Rectangle_318-2" data-name="Rectangle 318" transform="translate(0 0.183)" fill="none" stroke="#000" stroke-width="1">
          <rect width="7" height="7" rx="2" stroke="none"/>
          <rect x="0.5" y="0.5" width="6" height="6" rx="1.5" fill="none"/>
        </g>
        <g id="Rectangle_319-2" data-name="Rectangle 319" transform="translate(8 0.183)" fill="none" stroke="#000" stroke-width="1">
          <rect width="7" height="7" rx="2" stroke="none"/>
          <rect x="0.5" y="0.5" width="6" height="6" rx="1.5" fill="none"/>
        </g>
      </g>
    </g>
  </g>
</svg>
