<svg id="icon-restaurant" xmlns="http://www.w3.org/2000/svg" width="42" height="42" viewBox="0 0 42 42">
  <g id="Group_2371" data-name="Group 2371">
    <g id="Path_229" data-name="Path 229" fill="#f2f2f2">
      <path d="M 21 38.5 C 16.32558059692383 38.5 11.93093967437744 36.67967987060547 8.625630378723145 33.37437057495117 C 5.320320129394531 30.06905937194824 3.5 25.67441940307617 3.5 21 C 3.5 16.32558059692383 5.320320129394531 11.93093967437744 8.625630378723145 8.625630378723145 C 11.93093967437744 5.320320129394531 16.32558059692383 3.5 21 3.5 C 25.67441940307617 3.5 30.06905937194824 5.320320129394531 33.37437057495117 8.625630378723145 C 36.67967987060547 11.93093967437744 38.5 16.32558059692383 38.5 21 C 38.5 25.67441940307617 36.67967987060547 30.06905937194824 33.37437057495117 33.37437057495117 C 30.06905937194824 36.67967987060547 25.67441940307617 38.5 21 38.5 Z" stroke="none"/>
      <path d="M 21 7 C 13.28037452697754 7 7 13.28037452697754 7 21 C 7 28.71962547302246 13.28037452697754 35 21 35 C 28.71962547302246 35 35 28.71962547302246 35 21 C 35 13.28037452697754 28.71962547302246 7 21 7 M 21 0 C 32.59797668457031 0 42 9.402023315429688 42 21 C 42 32.59797668457031 32.59797668457031 42 21 42 C 9.402023315429688 42 0 32.59797668457031 0 21 C 0 9.402023315429688 9.402023315429688 0 21 0 Z" stroke="none" fill="#fff"/>
    </g>
  </g>
</svg>
